<?xml version="1.0" encoding="UTF-8" standalone="no"?>
<!-- Created with Inkscape (http://www.inkscape.org/) -->

<svg
   width="379.56885mm"
   height="428.81161mm"
   viewBox="0 0 379.56885 428.81161"
   version="1.1"
   id="svg1"
   xml:space="preserve"
   xmlns="http://www.w3.org/2000/svg"
   xmlns:svg="http://www.w3.org/2000/svg"><defs
     id="defs1" /><g
     id="layer1"
     transform="translate(529.53736,-690.68031)"><g
       id="g50"
       transform="translate(17.437098,49.793524)"><g
         id="g7"
         transform="matrix(0.54413202,0,0,0.54413202,-758.49629,681.64536)"><path
           id="path1"
           style="fill:#000000;fill-opacity:1;stroke:none;stroke-width:1;stroke-dasharray:none;stroke-opacity:1"
           d="m 458.45392,-73.95087 c -6.0314,0.01 -12.054,0.4613 -18.0196,1.3503 l 0.2331,37.4572 c 5.8427,-1.2918 11.8031,-1.9765 17.7865,-2.0433 47.9852,10e-5 86.8848,38.8999002 86.8846,86.8851 -0.1272,40.496399 -28.2147,75.5347 -67.7132,84.4703 l 0.1669,37.5414 c 60.032,-9.5058 104.2537,-61.2318 104.3105,-122.0117 2e-4,-68.289499 -55.3593,-123.6492 -123.6488,-123.6493 z" /><rect
           style="fill:#000000;fill-opacity:1;stroke:none;stroke-width:8.65862e-05;stroke-dasharray:none;stroke-opacity:1"
           id="rect5"
           width="36.398651"
           height="248.29695"
           x="440.34433"
           y="32.846905"
           transform="matrix(0.99997121,-0.0075881,0.00622676,0.99998061,0,0)" /><rect
           style="fill:#000000;fill-opacity:1;stroke:none;stroke-width:8.65862e-05;stroke-dasharray:none;stroke-opacity:1"
           id="rect6"
           width="36.398651"
           height="248.29695"
           x="389.19003"
           y="-71.677757"
           transform="matrix(0.99997121,-0.0075881,0.00622676,0.99998061,0,0)" /><rect
           style="fill:#000000;fill-opacity:1;stroke:none;stroke-width:8.65862e-05;stroke-dasharray:none;stroke-opacity:1"
           id="rect7"
           width="36.398651"
           height="248.29695"
           x="600.94244"
           y="34.065533"
           transform="matrix(0.99997121,-0.0075881,0.00622676,0.99998061,0,0)" /><path
           id="path7"
           style="fill:#000000;fill-opacity:1;stroke:none;stroke-width:1.41268;stroke-dasharray:none;stroke-opacity:1"
           d="m 587.54682,107.32183 c -19.8722,44.5924 -61.2774,75.8336 -109.6114,82.7045 l 0.2051,32.9406 c 42.2357,-4.8167 81.2655,-24.8699 109.7753,-56.4017 z" /></g><text
         xml:space="preserve"
         style="font-style:normal;font-variant:normal;font-weight:normal;font-stretch:normal;font-size:44.4352px;line-height:0.9;font-family:SignPainter;-inkscape-font-specification:SignPainter;text-align:start;writing-mode:lr-tb;direction:ltr;text-anchor:start;fill:#000000;stroke-width:0.874705"
         x="-479.60742"
         y="927.12067"
         id="text16"><tspan
           x="-479.60742"
           y="927.12067"
           style="font-style:normal;font-variant:normal;font-weight:normal;font-stretch:normal;font-size:44.4352px;line-height:0.9;font-family:Alice;-inkscape-font-specification:Alice;stroke-width:0.874705"
           id="tspan14">and We created </tspan><tspan
           x="-479.60742"
           y="967.88989"
           style="font-style:normal;font-variant:normal;font-weight:normal;font-stretch:normal;font-size:44.4352px;line-height:0.9;font-family:Alice;-inkscape-font-specification:Alice;stroke-width:0.874705"
           id="tspan16">you in pairs</tspan></text><text
         xml:space="preserve"
         style="font-style:normal;font-variant:normal;font-weight:normal;font-stretch:normal;font-size:44.1094px;line-height:0.7;font-family:SignPainter;-inkscape-font-specification:SignPainter;text-align:start;letter-spacing:0px;writing-mode:lr-tb;direction:ltr;text-anchor:start;fill:#000000;stroke-width:0.86829"
         x="-261.82529"
         y="1114.7633"
         id="text18"
         transform="scale(1.0425313,0.95920382)"><tspan
           x="-261.82529"
           y="1114.7633"
           style="font-style:normal;font-variant:normal;font-weight:bold;font-stretch:normal;font-size:44.1094px;line-height:0.7;font-family:'CaskaydiaCove Nerd Font Propo';-inkscape-font-specification:'CaskaydiaCove Nerd Font Propo Bold';letter-spacing:0px;stroke-width:0.86829"
           id="tspan18"
           dx="0">78:8</tspan></text></g></g></svg>
