<?xml version="1.0" encoding="UTF-8" standalone="no"?>
<!-- Created with Inkscape (http://www.inkscape.org/) -->

<svg
   width="283.77997mm"
   height="288.30127mm"
   viewBox="0 0 283.77997 288.30127"
   version="1.1"
   id="svg1"
   xml:space="preserve"
   xmlns="http://www.w3.org/2000/svg"
   xmlns:svg="http://www.w3.org/2000/svg"><defs
     id="defs1" /><g
     id="layer1"
     transform="translate(-1865.8122,-1325.2916)"><text
       xml:space="preserve"
       style="font-style:normal;font-variant:normal;font-weight:normal;font-stretch:normal;font-size:32.9601px;line-height:0.7;font-family:SignPainter;-inkscape-font-specification:SignPainter;text-align:start;letter-spacing:0px;writing-mode:lr-tb;direction:ltr;text-anchor:start;fill:#000000;stroke-width:0.648818"
       x="1815.1282"
       y="1639.9406"
       id="text56"
       transform="scale(1.0425313,0.95920382)"><tspan
         x="1815.1282"
         y="1639.9406"
         style="font-style:normal;font-variant:normal;font-weight:bold;font-stretch:normal;font-size:32.9601px;line-height:0.7;font-family:Alice;-inkscape-font-specification:'Alice Bold';letter-spacing:0px;stroke-width:0.648818"
         id="tspan56">26 Januari 2025</tspan></text><path
       id="path56"
       style="fill:#000000;fill-opacity:1;stroke:none;stroke-width:0.43082;stroke-dasharray:none;stroke-opacity:1"
       d="m 1982.9881,1367.9126 c -2.5985,0 -5.1931,0.1987 -7.7632,0.5817 l 0.1004,16.1373 c 2.5172,-0.5565 5.085,-0.8515 7.6628,-0.8803 20.673,1e-4 37.4317,16.7589 37.4316,37.4319 -0.055,17.4466 -12.1554,32.5418 -29.1722,36.3915 l 0.072,16.1735 c 25.863,-4.0952 44.9146,-26.3798 44.9391,-52.565 1e-4,-29.4205 -23.8499,-53.2706 -53.2704,-53.2706 z" /><rect
       style="fill:#000000;fill-opacity:1;stroke:none;stroke-width:3.73031e-05;stroke-dasharray:none;stroke-opacity:1"
       id="rect56"
       width="15.681265"
       height="106.97128"
       x="1966.437"
       y="1427.4326"
       transform="matrix(0.99997121,-0.00758809,0.00622675,0.99998061,0,0)" /><rect
       style="fill:#000000;fill-opacity:1;stroke:none;stroke-width:3.73031e-05;stroke-dasharray:none;stroke-opacity:1"
       id="rect57"
       width="15.681265"
       height="106.97128"
       x="1944.3987"
       y="1382.4014"
       transform="matrix(0.99997121,-0.00758809,0.00622675,0.99998061,0,0)" /><rect
       style="fill:#000000;fill-opacity:1;stroke:none;stroke-width:3.73031e-05;stroke-dasharray:none;stroke-opacity:1"
       id="rect58"
       width="15.681265"
       height="106.97128"
       x="2035.6259"
       y="1427.9576"
       transform="matrix(0.99997121,-0.00758809,0.00622675,0.99998061,0,0)" /><path
       id="path58"
       style="fill:#000000;fill-opacity:1;stroke:none;stroke-width:0.608611;stroke-dasharray:none;stroke-opacity:1"
       d="m 2038.6039,1446.0085 c -8.5613,19.2113 -26.3995,32.6706 -47.2228,35.6307 l 0.088,14.1915 c 18.196,-2.0751 35.0108,-10.7144 47.2934,-24.299 z" /><rect
       style="fill:#000000;fill-opacity:1;stroke:none;stroke-width:6.32545e-05;stroke-dasharray:none;stroke-opacity:1"
       id="rect59"
       width="17.015373"
       height="283.46548"
       x="1601.5364"
       y="-2119.6047"
       transform="matrix(0.01853157,0.99982828,-0.99999675,0.00254933,0,0)" /><rect
       style="fill:#000000;fill-opacity:1;stroke:none;stroke-width:6.32545e-05;stroke-dasharray:none;stroke-opacity:1"
       id="rect60"
       width="17.015373"
       height="283.46548"
       x="1330.9365"
       y="-2124.6194"
       transform="matrix(0.01853157,0.99982828,-0.99999675,0.00254933,0,0)" /></g></svg>
