<?xml version="1.0" encoding="UTF-8" standalone="no"?>
<!-- Created with Inkscape (http://www.inkscape.org/) -->

<svg
   width="210mm"
   height="297mm"
   viewBox="0 0 210 297"
   version="1.1"
   id="svg1"
   xml:space="preserve"
   inkscape:version="1.4 (e7c3feb1, 2024-10-09)"
   sodipodi:docname="souvenir.svg"
   xmlns:inkscape="http://www.inkscape.org/namespaces/inkscape"
   xmlns:sodipodi="http://sodipodi.sourceforge.net/DTD/sodipodi-0.dtd"
   xmlns="http://www.w3.org/2000/svg"
   xmlns:svg="http://www.w3.org/2000/svg"><sodipodi:namedview
     id="namedview1"
     pagecolor="#ffffff"
     bordercolor="#000000"
     borderopacity="0.25"
     inkscape:showpageshadow="2"
     inkscape:pageopacity="0.0"
     inkscape:pagecheckerboard="0"
     inkscape:deskcolor="#d1d1d1"
     inkscape:document-units="mm"
     inkscape:zoom="0.26205012"
     inkscape:cx="1085.6702"
     inkscape:cy="7592.0591"
     inkscape:window-width="1920"
     inkscape:window-height="1062"
     inkscape:window-x="0"
     inkscape:window-y="25"
     inkscape:window-maximized="1"
     inkscape:current-layer="layer1" /><defs
     id="defs1" /><g
     inkscape:label="Layer 1"
     inkscape:groupmode="layer"
     id="layer1"><g
       id="g5"
       transform="matrix(0.43081995,0,0,0.43081995,-718.82696,336.16919)"
       inkscape:export-filename="g5.png"
       inkscape:export-xdpi="100"
       inkscape:export-ydpi="100"><path
         id="path339"
         style="fill:#000000;fill-opacity:1;stroke:none;stroke-width:1;stroke-dasharray:none;stroke-opacity:1"
         d="m 458.45392,-73.95087 c -6.0314,0.01 -12.054,0.4613 -18.0196,1.3503 l 0.2331,37.4572 c 5.8427,-1.2918 11.8031,-1.9765 17.7865,-2.0433 47.9852,10e-5 86.8848,38.8999002 86.8846,86.8851 -0.1272,40.496399 -28.2147,75.5347 -67.7132,84.4703 l 0.1669,37.5414 c 60.032,-9.5058 104.2537,-61.2318 104.3105,-122.0117 2e-4,-68.289499 -55.3593,-123.6492 -123.6488,-123.6493 z"
         sodipodi:nodetypes="ccccccccc" /><rect
         style="fill:#000000;fill-opacity:1;stroke:none;stroke-width:8.65862e-05;stroke-dasharray:none;stroke-opacity:1"
         id="rect339"
         width="36.398651"
         height="248.29695"
         x="440.34433"
         y="32.846905"
         transform="matrix(0.99997121,-0.0075881,0.00622676,0.99998061,0,0)" /><rect
         style="fill:#000000;fill-opacity:1;stroke:none;stroke-width:8.65862e-05;stroke-dasharray:none;stroke-opacity:1"
         id="rect340"
         width="36.398651"
         height="248.29695"
         x="389.19003"
         y="-71.677757"
         transform="matrix(0.99997121,-0.0075881,0.00622676,0.99998061,0,0)" /><rect
         style="fill:#000000;fill-opacity:1;stroke:none;stroke-width:8.65862e-05;stroke-dasharray:none;stroke-opacity:1"
         id="rect341"
         width="36.398651"
         height="248.29695"
         x="600.94244"
         y="34.065533"
         transform="matrix(0.99997121,-0.0075881,0.00622676,0.99998061,0,0)" /><path
         id="path341"
         style="fill:#000000;fill-opacity:1;stroke:none;stroke-width:1.41268;stroke-dasharray:none;stroke-opacity:1"
         d="m 587.54682,107.32183 c -19.8722,44.5924 -61.2774,75.8336 -109.6114,82.7045 l 0.2051,32.9406 c 42.2357,-4.8167 81.2655,-24.8699 109.7753,-56.4017 z"
         sodipodi:nodetypes="ccccc" /></g><text
       xml:space="preserve"
       style="font-style:normal;font-variant:normal;font-weight:normal;font-stretch:normal;font-size:147.717px;line-height:0.65;font-family:SignPainter;-inkscape-font-specification:SignPainter;text-align:start;writing-mode:lr-tb;direction:ltr;text-anchor:start;fill:#000000;stroke-width:2.90781"
       x="-555.40851"
       y="2.6340902"
       id="text5"><tspan
         sodipodi:role="line"
         id="tspan5"
         x="-555.40851"
         y="2.6340902"
         style="font-size:147.717px;line-height:0.65;stroke-width:2.90781">and We</tspan><tspan
         sodipodi:role="line"
         x="-555.40851"
         y="98.650131"
         style="font-size:147.717px;line-height:0.65;stroke-width:2.90781"
         id="tspan6">  created </tspan><tspan
         sodipodi:role="line"
         x="-555.40851"
         y="194.66618"
         style="font-size:147.717px;line-height:0.65;stroke-width:2.90781"
         id="tspan7"> you in </tspan><tspan
         sodipodi:role="line"
         x="-555.40851"
         y="290.68222"
         style="font-size:147.717px;line-height:0.65;stroke-width:2.90781"
         id="tspan8">      pairs</tspan></text><text
       xml:space="preserve"
       style="font-style:normal;font-variant:normal;font-weight:normal;font-stretch:normal;font-size:44.1094px;line-height:0.7;font-family:SignPainter;-inkscape-font-specification:SignPainter;text-align:start;letter-spacing:0px;writing-mode:lr-tb;direction:ltr;text-anchor:start;fill:#000000;stroke-width:0.86829"
       x="-268.67343"
       y="365.79684"
       id="text12"
       transform="scale(1.0425313,0.95920382)"><tspan
         sodipodi:role="line"
         x="-268.67343"
         y="365.79684"
         style="font-style:normal;font-variant:normal;font-weight:bold;font-stretch:normal;font-size:44.1094px;line-height:0.7;font-family:'CaskaydiaCove Nerd Font Propo';-inkscape-font-specification:'CaskaydiaCove Nerd Font Propo Bold';letter-spacing:0px;stroke-width:0.86829"
         id="tspan12"
         dx="0">78:8</tspan></text><text
       xml:space="preserve"
       style="font-style:normal;font-variant:normal;font-weight:normal;font-stretch:normal;font-size:42.8264px;line-height:0.7;font-family:SignPainter;-inkscape-font-specification:SignPainter;text-align:start;letter-spacing:0px;writing-mode:lr-tb;direction:ltr;text-anchor:start;fill:#000000;stroke-width:0.843035"
       x="244.12616"
       y="279.24579"
       id="text17"
       transform="scale(1.0425313,0.95920382)"
       inkscape:export-filename="g6.png"
       inkscape:export-xdpi="100"
       inkscape:export-ydpi="100"><tspan
         sodipodi:role="line"
         x="244.12616"
         y="279.24579"
         style="font-style:normal;font-variant:normal;font-weight:bold;font-stretch:normal;font-size:42.8264px;line-height:0.7;font-family:SignPainter;-inkscape-font-specification:'SignPainter Bold';letter-spacing:0px;stroke-width:0.843035"
         id="tspan17">26 Januari 2025</tspan></text><g
       id="g19"
       transform="matrix(0.43081995,0,0,0.43081995,158.773,91.829801)"
       inkscape:export-filename="g5.png"
       inkscape:export-xdpi="100"
       inkscape:export-ydpi="100"><path
         id="path17"
         style="fill:#000000;fill-opacity:1;stroke:none;stroke-width:1;stroke-dasharray:none;stroke-opacity:1"
         d="m 458.45392,-73.95087 c -6.0314,0.01 -12.054,0.4613 -18.0196,1.3503 l 0.2331,37.4572 c 5.8427,-1.2918 11.8031,-1.9765 17.7865,-2.0433 47.9852,10e-5 86.8848,38.8999002 86.8846,86.8851 -0.1272,40.496399 -28.2147,75.5347 -67.7132,84.4703 l 0.1669,37.5414 c 60.032,-9.5058 104.2537,-61.2318 104.3105,-122.0117 2e-4,-68.289499 -55.3593,-123.6492 -123.6488,-123.6493 z"
         sodipodi:nodetypes="ccccccccc" /><rect
         style="fill:#000000;fill-opacity:1;stroke:none;stroke-width:8.65862e-05;stroke-dasharray:none;stroke-opacity:1"
         id="rect17"
         width="36.398651"
         height="248.29695"
         x="440.34433"
         y="32.846905"
         transform="matrix(0.99997121,-0.0075881,0.00622676,0.99998061,0,0)" /><rect
         style="fill:#000000;fill-opacity:1;stroke:none;stroke-width:8.65862e-05;stroke-dasharray:none;stroke-opacity:1"
         id="rect18"
         width="36.398651"
         height="248.29695"
         x="389.19003"
         y="-71.677757"
         transform="matrix(0.99997121,-0.0075881,0.00622676,0.99998061,0,0)" /><rect
         style="fill:#000000;fill-opacity:1;stroke:none;stroke-width:8.65862e-05;stroke-dasharray:none;stroke-opacity:1"
         id="rect19"
         width="36.398651"
         height="248.29695"
         x="600.94244"
         y="34.065533"
         transform="matrix(0.99997121,-0.0075881,0.00622676,0.99998061,0,0)" /><path
         id="path19"
         style="fill:#000000;fill-opacity:1;stroke:none;stroke-width:1.41268;stroke-dasharray:none;stroke-opacity:1"
         d="m 587.54682,107.32183 c -19.8722,44.5924 -61.2774,75.8336 -109.6114,82.7045 l 0.2051,32.9406 c 42.2357,-4.8167 81.2655,-24.8699 109.7753,-56.4017 z"
         sodipodi:nodetypes="ccccc" /></g><rect
       style="fill:none;stroke:#000000;stroke-width:10.382;stroke-linecap:round;stroke-linejoin:round;stroke-dasharray:none;stroke-opacity:1"
       id="rect20"
       width="537.77045"
       height="657.92084"
       x="-608.63818"
       y="-149.23972" /><g
       id="g23"
       transform="matrix(0.43081995,0,0,0.43081995,-1342.8011,336.16919)"
       inkscape:export-filename="g5.png"
       inkscape:export-xdpi="100"
       inkscape:export-ydpi="100"><path
         id="path20"
         style="fill:#000000;fill-opacity:1;stroke:none;stroke-width:1;stroke-dasharray:none;stroke-opacity:1"
         d="m 458.45392,-73.95087 c -6.0314,0.01 -12.054,0.4613 -18.0196,1.3503 l 0.2331,37.4572 c 5.8427,-1.2918 11.8031,-1.9765 17.7865,-2.0433 47.9852,10e-5 86.8848,38.8999002 86.8846,86.8851 -0.1272,40.496399 -28.2147,75.5347 -67.7132,84.4703 l 0.1669,37.5414 c 60.032,-9.5058 104.2537,-61.2318 104.3105,-122.0117 2e-4,-68.289499 -55.3593,-123.6492 -123.6488,-123.6493 z"
         sodipodi:nodetypes="ccccccccc" /><rect
         style="fill:#000000;fill-opacity:1;stroke:none;stroke-width:8.65862e-05;stroke-dasharray:none;stroke-opacity:1"
         id="rect21"
         width="36.398651"
         height="248.29695"
         x="440.34433"
         y="32.846905"
         transform="matrix(0.99997121,-0.0075881,0.00622676,0.99998061,0,0)" /><rect
         style="fill:#000000;fill-opacity:1;stroke:none;stroke-width:8.65862e-05;stroke-dasharray:none;stroke-opacity:1"
         id="rect22"
         width="36.398651"
         height="248.29695"
         x="389.19003"
         y="-71.677757"
         transform="matrix(0.99997121,-0.0075881,0.00622676,0.99998061,0,0)" /><rect
         style="fill:#000000;fill-opacity:1;stroke:none;stroke-width:8.65862e-05;stroke-dasharray:none;stroke-opacity:1"
         id="rect23"
         width="36.398651"
         height="248.29695"
         x="600.94244"
         y="34.065533"
         transform="matrix(0.99997121,-0.0075881,0.00622676,0.99998061,0,0)" /><path
         id="path23"
         style="fill:#000000;fill-opacity:1;stroke:none;stroke-width:1.41268;stroke-dasharray:none;stroke-opacity:1"
         d="m 587.54682,107.32183 c -19.8722,44.5924 -61.2774,75.8336 -109.6114,82.7045 l 0.2051,32.9406 c 42.2357,-4.8167 81.2655,-24.8699 109.7753,-56.4017 z"
         sodipodi:nodetypes="ccccc" /></g><text
       xml:space="preserve"
       style="font-style:normal;font-variant:normal;font-weight:normal;font-stretch:normal;font-size:147.717px;line-height:0.65;font-family:SignPainter;-inkscape-font-specification:SignPainter;text-align:start;writing-mode:lr-tb;direction:ltr;text-anchor:start;fill:#000000;stroke-width:2.90781"
       x="-1179.3826"
       y="2.6340902"
       id="text26"><tspan
         sodipodi:role="line"
         id="tspan23"
         x="-1179.3826"
         y="2.6340902"
         style="font-size:147.717px;line-height:0.65;stroke-width:2.90781">and We</tspan><tspan
         sodipodi:role="line"
         x="-1179.3826"
         y="98.650131"
         style="font-size:147.717px;line-height:0.65;stroke-width:2.90781"
         id="tspan24">  created </tspan><tspan
         sodipodi:role="line"
         x="-1179.3826"
         y="194.66618"
         style="font-size:147.717px;line-height:0.65;stroke-width:2.90781"
         id="tspan25"> you in </tspan><tspan
         sodipodi:role="line"
         x="-1179.3826"
         y="290.68222"
         style="font-size:147.717px;line-height:0.65;stroke-width:2.90781"
         id="tspan26">      pairs</tspan></text><text
       xml:space="preserve"
       style="font-style:normal;font-variant:normal;font-weight:normal;font-stretch:normal;font-size:44.1094px;line-height:0.7;font-family:SignPainter;-inkscape-font-specification:SignPainter;text-align:start;letter-spacing:0px;writing-mode:lr-tb;direction:ltr;text-anchor:start;fill:#000000;stroke-width:0.86829"
       x="-867.19183"
       y="365.79684"
       id="text27"
       transform="scale(1.0425313,0.95920382)"><tspan
         sodipodi:role="line"
         x="-867.19183"
         y="365.79684"
         style="font-style:normal;font-variant:normal;font-weight:bold;font-stretch:normal;font-size:44.1094px;line-height:0.7;font-family:'CaskaydiaCove Nerd Font Propo';-inkscape-font-specification:'CaskaydiaCove Nerd Font Propo Bold';letter-spacing:0px;stroke-width:0.86829"
         id="tspan27"
         dx="0">78:8</tspan></text><rect
       style="fill:none;stroke:#000000;stroke-width:10.382;stroke-linecap:round;stroke-linejoin:round;stroke-dasharray:none;stroke-opacity:1"
       id="rect27"
       width="537.77045"
       height="657.92084"
       x="-1232.6123"
       y="-149.23972"
       ry="129.23737" /><g
       id="g31"
       transform="matrix(0.43081995,0,0,0.43081995,-2005.1426,336.16919)"
       inkscape:export-filename="g5.png"
       inkscape:export-xdpi="100"
       inkscape:export-ydpi="100"><path
         id="path29"
         style="fill:#000000;fill-opacity:1;stroke:none;stroke-width:1;stroke-dasharray:none;stroke-opacity:1"
         d="m 458.45392,-73.95087 c -6.0314,0.01 -12.054,0.4613 -18.0196,1.3503 l 0.2331,37.4572 c 5.8427,-1.2918 11.8031,-1.9765 17.7865,-2.0433 47.9852,10e-5 86.8848,38.8999002 86.8846,86.8851 -0.1272,40.496399 -28.2147,75.5347 -67.7132,84.4703 l 0.1669,37.5414 c 60.032,-9.5058 104.2537,-61.2318 104.3105,-122.0117 2e-4,-68.289499 -55.3593,-123.6492 -123.6488,-123.6493 z"
         sodipodi:nodetypes="ccccccccc" /><rect
         style="fill:#000000;fill-opacity:1;stroke:none;stroke-width:8.65862e-05;stroke-dasharray:none;stroke-opacity:1"
         id="rect29"
         width="36.398651"
         height="248.29695"
         x="440.34433"
         y="32.846905"
         transform="matrix(0.99997121,-0.0075881,0.00622676,0.99998061,0,0)" /><rect
         style="fill:#000000;fill-opacity:1;stroke:none;stroke-width:8.65862e-05;stroke-dasharray:none;stroke-opacity:1"
         id="rect30"
         width="36.398651"
         height="248.29695"
         x="389.19003"
         y="-71.677757"
         transform="matrix(0.99997121,-0.0075881,0.00622676,0.99998061,0,0)" /><rect
         style="fill:#000000;fill-opacity:1;stroke:none;stroke-width:8.65862e-05;stroke-dasharray:none;stroke-opacity:1"
         id="rect31"
         width="36.398651"
         height="248.29695"
         x="600.94244"
         y="34.065533"
         transform="matrix(0.99997121,-0.0075881,0.00622676,0.99998061,0,0)" /><path
         id="path31"
         style="fill:#000000;fill-opacity:1;stroke:none;stroke-width:1.41268;stroke-dasharray:none;stroke-opacity:1"
         d="m 587.54682,107.32183 c -19.8722,44.5924 -61.2774,75.8336 -109.6114,82.7045 l 0.2051,32.9406 c 42.2357,-4.8167 81.2655,-24.8699 109.7753,-56.4017 z"
         sodipodi:nodetypes="ccccc" /></g><text
       xml:space="preserve"
       style="font-style:normal;font-variant:normal;font-weight:normal;font-stretch:normal;font-size:147.717px;line-height:0.65;font-family:SignPainter;-inkscape-font-specification:SignPainter;text-align:start;writing-mode:lr-tb;direction:ltr;text-anchor:start;fill:#000000;stroke-width:2.90781"
       x="-1841.724"
       y="2.6340902"
       id="text34"><tspan
         sodipodi:role="line"
         id="tspan31"
         x="-1841.724"
         y="2.6340902"
         style="font-size:147.717px;line-height:0.65;stroke-width:2.90781">and We</tspan><tspan
         sodipodi:role="line"
         x="-1841.724"
         y="98.650131"
         style="font-size:147.717px;line-height:0.65;stroke-width:2.90781"
         id="tspan32">  created </tspan><tspan
         sodipodi:role="line"
         x="-1841.724"
         y="194.66618"
         style="font-size:147.717px;line-height:0.65;stroke-width:2.90781"
         id="tspan33"> you in </tspan><tspan
         sodipodi:role="line"
         x="-1841.724"
         y="290.68222"
         style="font-size:147.717px;line-height:0.65;stroke-width:2.90781"
         id="tspan34">      pairs</tspan></text><text
       xml:space="preserve"
       style="font-style:normal;font-variant:normal;font-weight:normal;font-stretch:normal;font-size:44.1094px;line-height:0.7;font-family:SignPainter;-inkscape-font-specification:SignPainter;text-align:start;letter-spacing:0px;writing-mode:lr-tb;direction:ltr;text-anchor:start;fill:#000000;stroke-width:0.86829"
       x="-1502.5123"
       y="365.79684"
       id="text35"
       transform="scale(1.0425313,0.95920382)"><tspan
         sodipodi:role="line"
         x="-1502.5123"
         y="365.79684"
         style="font-style:normal;font-variant:normal;font-weight:bold;font-stretch:normal;font-size:44.1094px;line-height:0.7;font-family:'CaskaydiaCove Nerd Font Propo';-inkscape-font-specification:'CaskaydiaCove Nerd Font Propo Bold';letter-spacing:0px;stroke-width:0.86829"
         id="tspan35"
         dx="0">78:8</tspan></text><rect
       style="fill:none;fill-opacity:1;stroke:#000000;stroke-width:11.1574;stroke-linecap:round;stroke-linejoin:round;stroke-dasharray:none;stroke-opacity:1"
       id="rect35"
       width="472.9003"
       height="153.7681"
       x="-1886.3708"
       y="-108.65448"
       ry="76.884048" /><rect
       style="fill:none;fill-opacity:1;stroke:#000000;stroke-width:11.1574;stroke-linecap:round;stroke-linejoin:round;stroke-dasharray:none;stroke-opacity:1"
       id="rect36"
       width="472.9003"
       height="153.7681"
       x="-1832.1112"
       y="-11.558326"
       ry="76.884048" /><rect
       style="fill:none;fill-opacity:1;stroke:#000000;stroke-width:11.1574;stroke-linecap:round;stroke-linejoin:round;stroke-dasharray:none;stroke-opacity:1"
       id="rect37"
       width="472.9003"
       height="153.7681"
       x="-1918.4982"
       y="96.246964"
       ry="76.884048" /><rect
       style="fill:none;fill-opacity:1;stroke:#000000;stroke-width:11.1574;stroke-linecap:round;stroke-linejoin:round;stroke-dasharray:none;stroke-opacity:1"
       id="rect38"
       width="472.9003"
       height="153.7681"
       x="-1769.2842"
       y="184.06187"
       ry="76.884048" /><rect
       style="fill:none;fill-opacity:1;stroke:#000000;stroke-width:6.23254;stroke-linecap:round;stroke-linejoin:round;stroke-dasharray:none;stroke-opacity:1"
       id="rect39"
       width="231.51506"
       height="98.007858"
       x="-1630.3861"
       y="287.97684"
       ry="49.003929" /><g
       id="g42"
       transform="matrix(0.43081995,0,0,0.43081995,-2047.9792,1094.376)"
       inkscape:export-filename="g5.png"
       inkscape:export-xdpi="100"
       inkscape:export-ydpi="100"><path
         id="path39"
         style="fill:#000000;fill-opacity:1;stroke:none;stroke-width:1;stroke-dasharray:none;stroke-opacity:1"
         d="m 458.45392,-73.95087 c -6.0314,0.01 -12.054,0.4613 -18.0196,1.3503 l 0.2331,37.4572 c 5.8427,-1.2918 11.8031,-1.9765 17.7865,-2.0433 47.9852,10e-5 86.8848,38.8999002 86.8846,86.8851 -0.1272,40.496399 -28.2147,75.5347 -67.7132,84.4703 l 0.1669,37.5414 c 60.032,-9.5058 104.2537,-61.2318 104.3105,-122.0117 2e-4,-68.289499 -55.3593,-123.6492 -123.6488,-123.6493 z"
         sodipodi:nodetypes="ccccccccc" /><rect
         style="fill:#000000;fill-opacity:1;stroke:none;stroke-width:8.65862e-05;stroke-dasharray:none;stroke-opacity:1"
         id="rect40"
         width="36.398651"
         height="248.29695"
         x="440.34433"
         y="32.846905"
         transform="matrix(0.99997121,-0.0075881,0.00622676,0.99998061,0,0)" /><rect
         style="fill:#000000;fill-opacity:1;stroke:none;stroke-width:8.65862e-05;stroke-dasharray:none;stroke-opacity:1"
         id="rect41"
         width="36.398651"
         height="248.29695"
         x="389.19003"
         y="-71.677757"
         transform="matrix(0.99997121,-0.0075881,0.00622676,0.99998061,0,0)" /><rect
         style="fill:#000000;fill-opacity:1;stroke:none;stroke-width:8.65862e-05;stroke-dasharray:none;stroke-opacity:1"
         id="rect42"
         width="36.398651"
         height="248.29695"
         x="600.94244"
         y="34.065533"
         transform="matrix(0.99997121,-0.0075881,0.00622676,0.99998061,0,0)" /><path
         id="path42"
         style="fill:#000000;fill-opacity:1;stroke:none;stroke-width:1.41268;stroke-dasharray:none;stroke-opacity:1"
         d="m 587.54682,107.32183 c -19.8722,44.5924 -61.2774,75.8336 -109.6114,82.7045 l 0.2051,32.9406 c 42.2357,-4.8167 81.2655,-24.8699 109.7753,-56.4017 z"
         sodipodi:nodetypes="ccccc" /></g><text
       xml:space="preserve"
       style="font-style:normal;font-variant:normal;font-weight:normal;font-stretch:normal;font-size:147.717px;line-height:0.65;font-family:SignPainter;-inkscape-font-specification:SignPainter;text-align:start;writing-mode:lr-tb;direction:ltr;text-anchor:start;fill:#000000;stroke-width:2.90781"
       x="-1846.0077"
       y="739.42255"
       id="text45"><tspan
         sodipodi:role="line"
         id="tspan42"
         x="-1846.0077"
         y="739.42255"
         style="font-size:147.717px;line-height:0.65;stroke-width:2.90781">and We</tspan><tspan
         sodipodi:role="line"
         x="-1846.0077"
         y="835.4386"
         style="font-size:147.717px;line-height:0.65;stroke-width:2.90781"
         id="tspan43">  created </tspan><tspan
         sodipodi:role="line"
         x="-1846.0077"
         y="931.45465"
         style="font-size:147.717px;line-height:0.65;stroke-width:2.90781"
         id="tspan44"> you in </tspan><tspan
         sodipodi:role="line"
         x="-1846.0077"
         y="1027.4707"
         style="font-size:147.717px;line-height:0.65;stroke-width:2.90781"
         id="tspan45">      pairs</tspan></text><text
       xml:space="preserve"
       style="font-style:normal;font-variant:normal;font-weight:normal;font-stretch:normal;font-size:44.1094px;line-height:0.7;font-family:SignPainter;-inkscape-font-specification:SignPainter;text-align:start;letter-spacing:0px;writing-mode:lr-tb;direction:ltr;text-anchor:start;fill:#000000;stroke-width:0.86829"
       x="-1506.6212"
       y="1133.9219"
       id="text46"
       transform="scale(1.0425313,0.95920382)"><tspan
         sodipodi:role="line"
         x="-1506.6212"
         y="1133.9219"
         style="font-style:normal;font-variant:normal;font-weight:bold;font-stretch:normal;font-size:44.1094px;line-height:0.7;font-family:'CaskaydiaCove Nerd Font Propo';-inkscape-font-specification:'CaskaydiaCove Nerd Font Propo Bold';letter-spacing:0px;stroke-width:0.86829"
         id="tspan46"
         dx="0">78:8</tspan></text><rect
       style="fill:none;fill-opacity:1;stroke:#000000;stroke-width:10;stroke-linecap:round;stroke-linejoin:round;stroke-dasharray:none;stroke-opacity:1"
       id="rect46"
       width="472.9003"
       height="153.7681"
       x="-1907.7892"
       y="622.42242"
       ry="76.884048" /><rect
       style="fill:none;fill-opacity:1;stroke:#000000;stroke-width:10;stroke-linecap:round;stroke-linejoin:round;stroke-dasharray:none;stroke-opacity:1"
       id="rect47"
       width="472.9003"
       height="153.7681"
       x="-1839.2506"
       y="710.95129"
       ry="76.884048" /><rect
       style="fill:none;fill-opacity:1;stroke:#000000;stroke-width:9.61568;stroke-linecap:round;stroke-linejoin:round;stroke-dasharray:none;stroke-opacity:1"
       id="rect48"
       width="436.15961"
       height="154.15242"
       x="-1885.849"
       y="845.69421"
       ry="77.07621" /><rect
       style="fill:none;fill-opacity:1;stroke:#000000;stroke-width:8.84214;stroke-linecap:round;stroke-linejoin:round;stroke-dasharray:none;stroke-opacity:1"
       id="rect49"
       width="366.96683"
       height="154.92596"
       x="-1718.4594"
       y="937.40607"
       ry="77.462982" /><rect
       style="fill:none;fill-opacity:1;stroke:#000000;stroke-width:10;stroke-linecap:round;stroke-linejoin:round;stroke-dasharray:none;stroke-opacity:1"
       id="rect50"
       width="231.51506"
       height="98.007858"
       x="-1634.6698"
       y="1024.7653"
       ry="49.003929" /><g
       id="g64"
       transform="matrix(0.43081995,0,0,0.43081995,-1489.6763,1734.0683)"
       inkscape:export-filename="g5.png"
       inkscape:export-xdpi="100"
       inkscape:export-ydpi="100"><path
         id="path62"
         style="fill:#000000;fill-opacity:1;stroke:none;stroke-width:1;stroke-dasharray:none;stroke-opacity:1"
         d="m 458.45392,-73.95087 c -6.0314,0.01 -12.054,0.4613 -18.0196,1.3503 l 0.2331,37.4572 c 5.8427,-1.2918 11.8031,-1.9765 17.7865,-2.0433 47.9852,10e-5 86.8848,38.8999002 86.8846,86.8851 -0.1272,40.496399 -28.2147,75.5347 -67.7132,84.4703 l 0.1669,37.5414 c 60.032,-9.5058 104.2537,-61.2318 104.3105,-122.0117 2e-4,-68.289499 -55.3593,-123.6492 -123.6488,-123.6493 z"
         sodipodi:nodetypes="ccccccccc" /><rect
         style="fill:#000000;fill-opacity:1;stroke:none;stroke-width:8.65862e-05;stroke-dasharray:none;stroke-opacity:1"
         id="rect62"
         width="36.398651"
         height="248.29695"
         x="440.34433"
         y="32.846905"
         transform="matrix(0.99997121,-0.0075881,0.00622676,0.99998061,0,0)" /><rect
         style="fill:#000000;fill-opacity:1;stroke:none;stroke-width:8.65862e-05;stroke-dasharray:none;stroke-opacity:1"
         id="rect63"
         width="36.398651"
         height="248.29695"
         x="389.19003"
         y="-71.677757"
         transform="matrix(0.99997121,-0.0075881,0.00622676,0.99998061,0,0)" /><rect
         style="fill:#000000;fill-opacity:1;stroke:none;stroke-width:8.65862e-05;stroke-dasharray:none;stroke-opacity:1"
         id="rect64"
         width="36.398651"
         height="248.29695"
         x="600.94244"
         y="34.065533"
         transform="matrix(0.99997121,-0.0075881,0.00622676,0.99998061,0,0)" /><path
         id="path64"
         style="fill:#000000;fill-opacity:1;stroke:none;stroke-width:1.41268;stroke-dasharray:none;stroke-opacity:1"
         d="m 587.54682,107.32183 c -19.8722,44.5924 -61.2774,75.8336 -109.6114,82.7045 l 0.2051,32.9406 c 42.2357,-4.8167 81.2655,-24.8699 109.7753,-56.4017 z"
         sodipodi:nodetypes="ccccc" /></g><text
       xml:space="preserve"
       style="font-style:normal;font-variant:normal;font-weight:normal;font-stretch:normal;font-size:147.717px;line-height:0.65;font-family:SignPainter;-inkscape-font-specification:SignPainter;text-align:start;writing-mode:lr-tb;direction:ltr;text-anchor:start;fill:#000000;stroke-width:2.90781"
       x="-1287.7048"
       y="1379.1149"
       id="text67"><tspan
         sodipodi:role="line"
         id="tspan64"
         x="-1287.7048"
         y="1379.1149"
         style="font-size:147.717px;line-height:0.65;stroke-width:2.90781">and We</tspan><tspan
         sodipodi:role="line"
         x="-1287.7048"
         y="1475.1309"
         style="font-size:147.717px;line-height:0.65;stroke-width:2.90781"
         id="tspan65">  created </tspan><tspan
         sodipodi:role="line"
         x="-1287.7048"
         y="1571.147"
         style="font-size:147.717px;line-height:0.65;stroke-width:2.90781"
         id="tspan66"> you in </tspan><tspan
         sodipodi:role="line"
         x="-1287.7048"
         y="1667.163"
         style="font-size:147.717px;line-height:0.65;stroke-width:2.90781"
         id="tspan67">      pairs</tspan></text><text
       xml:space="preserve"
       style="font-style:normal;font-variant:normal;font-weight:normal;font-stretch:normal;font-size:44.1094px;line-height:0.7;font-family:SignPainter;-inkscape-font-specification:SignPainter;text-align:start;letter-spacing:0px;writing-mode:lr-tb;direction:ltr;text-anchor:start;fill:#000000;stroke-width:0.86829"
       x="-980.29547"
       y="1817.663"
       id="text68"
       transform="scale(1.0425313,0.95920382)"><tspan
         sodipodi:role="line"
         x="-980.29547"
         y="1817.663"
         style="font-style:normal;font-variant:normal;font-weight:bold;font-stretch:normal;font-size:44.1094px;line-height:0.7;font-family:'CaskaydiaCove Nerd Font Propo';-inkscape-font-specification:'CaskaydiaCove Nerd Font Propo Bold';letter-spacing:0px;stroke-width:0.86829"
         id="tspan68"
         dx="0">78:8</tspan></text><path
       id="rect68"
       style="fill:none;fill-opacity:1;stroke:#000000;stroke-width:10;stroke-linecap:round;stroke-linejoin:round;stroke-dasharray:none;stroke-opacity:1"
       d="M -1272.6024 1262.1147 C -1315.1962 1262.1147 -1349.4861 1296.4051 -1349.4861 1338.9989 C -1349.4861 1379.1195 -1319.0554 1411.8469 -1279.9255 1415.5151 C -1280.5375 1419.4374 -1280.9477 1423.4286 -1280.9477 1427.5279 C -1280.9477 1450.7827 -1270.68 1471.5119 -1254.4666 1485.5874 C -1295.2822 1487.6667 -1327.5464 1521.1123 -1327.5464 1562.4628 C -1327.5464 1605.163 -1293.1701 1639.5392 -1250.4699 1639.5392 L -1158.6833 1639.5392 C -1159.6317 1644.3995 -1160.1566 1649.4155 -1160.1566 1654.5615 C -1160.1566 1697.476 -1125.6081 1732.0245 -1082.6936 1732.0245 L -1054.3878 1732.0245 C -1053.1559 1750.6566 -1037.7549 1765.2928 -1018.8003 1765.2928 L -921.60214 1765.2928 C -902.64763 1765.2928 -887.24605 1750.6566 -886.01414 1732.0245 L -870.6528 1732.0245 C -827.73831 1732.0245 -793.18983 1697.476 -793.18983 1654.5615 C -793.18983 1611.647 -827.73831 1577.0986 -870.6528 1577.0986 L -892.80494 1577.0986 C -891.8999 1572.3582 -891.38642 1567.4746 -891.38642 1562.4628 C -891.38642 1539.2321 -901.61089 1518.5196 -917.76517 1504.4115 L -884.93151 1504.4115 C -842.33775 1504.4115 -808.04732 1470.1216 -808.04732 1427.5279 C -808.04732 1387.4072 -838.47857 1354.6793 -877.60845 1351.0111 C -876.99642 1347.0889 -876.58629 1343.0981 -876.58629 1338.9989 C -876.58629 1296.4051 -910.8762 1262.1147 -953.46997 1262.1147 L -1272.6024 1262.1147 z " /><rect
       style="fill:none;fill-opacity:1;stroke:#000000;stroke-width:10;stroke-linecap:round;stroke-linejoin:round;stroke-dasharray:none;stroke-opacity:1"
       id="rect72"
       width="949.08691"
       height="686.57349"
       x="12.116003"
       y="1102.5562"
       rx="11.423077"
       ry="76.884048" /><rect
       style="fill:none;fill-opacity:1;stroke:#000000;stroke-width:10.7145;stroke-linecap:round;stroke-linejoin:round;stroke-dasharray:none;stroke-opacity:1"
       id="rect73"
       width="451.6163"
       height="684.94574"
       x="262.87064"
       y="1102.5669"
       rx="11.405034"
       ry="88.402039" /><text
       xml:space="preserve"
       style="font-style:normal;font-variant:normal;font-weight:normal;font-stretch:normal;font-size:122.833px;line-height:0.65;font-family:SignPainter;-inkscape-font-specification:SignPainter;text-align:start;writing-mode:lr-tb;direction:ltr;text-anchor:start;fill:#000000;stroke-width:2.41797"
       x="310.02448"
       y="1317.6945"
       id="text76"><tspan
         sodipodi:role="line"
         id="tspan73"
         x="310.02448"
         y="1317.6945"
         style="font-size:122.833px;line-height:0.65;stroke-width:2.41797">and We</tspan><tspan
         sodipodi:role="line"
         x="310.02448"
         y="1397.5359"
         style="font-size:122.833px;line-height:0.65;stroke-width:2.41797"
         id="tspan74">  created </tspan><tspan
         sodipodi:role="line"
         x="310.02448"
         y="1477.3773"
         style="font-size:122.833px;line-height:0.65;stroke-width:2.41797"
         id="tspan75"> you in </tspan><tspan
         sodipodi:role="line"
         x="310.02448"
         y="1557.2188"
         style="font-size:122.833px;line-height:0.65;stroke-width:2.41797"
         id="tspan76">      pairs</tspan></text><text
       xml:space="preserve"
       style="font-style:normal;font-variant:normal;font-weight:normal;font-stretch:normal;font-size:36.6789px;line-height:0.7;font-family:SignPainter;-inkscape-font-specification:SignPainter;text-align:start;letter-spacing:0px;writing-mode:lr-tb;direction:ltr;text-anchor:start;fill:#000000;stroke-width:0.722021"
       x="509.31726"
       y="1689.6353"
       id="text77"
       transform="scale(1.0425313,0.95920382)"><tspan
         sodipodi:role="line"
         x="509.31726"
         y="1689.6353"
         style="font-style:normal;font-variant:normal;font-weight:bold;font-stretch:normal;font-size:36.6789px;line-height:0.7;font-family:'CaskaydiaCove Nerd Font Propo';-inkscape-font-specification:'CaskaydiaCove Nerd Font Propo Bold';letter-spacing:0px;stroke-width:0.722021"
         id="tspan77"
         dx="0">78:8</tspan></text><g
       id="g80"
       transform="matrix(0.28507729,0,0,0.28507729,191.4749,1623.6487)"
       inkscape:export-filename="g5.png"
       inkscape:export-xdpi="100"
       inkscape:export-ydpi="100"><path
         id="path78"
         style="fill:#000000;fill-opacity:1;stroke:none;stroke-width:1;stroke-dasharray:none;stroke-opacity:1"
         d="m 458.45392,-73.95087 c -6.0314,0.01 -12.054,0.4613 -18.0196,1.3503 l 0.2331,37.4572 c 5.8427,-1.2918 11.8031,-1.9765 17.7865,-2.0433 47.9852,10e-5 86.8848,38.8999002 86.8846,86.8851 -0.1272,40.496399 -28.2147,75.5347 -67.7132,84.4703 l 0.1669,37.5414 c 60.032,-9.5058 104.2537,-61.2318 104.3105,-122.0117 2e-4,-68.289499 -55.3593,-123.6492 -123.6488,-123.6493 z"
         sodipodi:nodetypes="ccccccccc" /><rect
         style="fill:#000000;fill-opacity:1;stroke:none;stroke-width:8.65862e-05;stroke-dasharray:none;stroke-opacity:1"
         id="rect78"
         width="36.398651"
         height="248.29695"
         x="440.34433"
         y="32.846905"
         transform="matrix(0.99997121,-0.0075881,0.00622676,0.99998061,0,0)" /><rect
         style="fill:#000000;fill-opacity:1;stroke:none;stroke-width:8.65862e-05;stroke-dasharray:none;stroke-opacity:1"
         id="rect79"
         width="36.398651"
         height="248.29695"
         x="389.19003"
         y="-71.677757"
         transform="matrix(0.99997121,-0.0075881,0.00622676,0.99998061,0,0)" /><rect
         style="fill:#000000;fill-opacity:1;stroke:none;stroke-width:8.65862e-05;stroke-dasharray:none;stroke-opacity:1"
         id="rect80"
         width="36.398651"
         height="248.29695"
         x="600.94244"
         y="34.065533"
         transform="matrix(0.99997121,-0.0075881,0.00622676,0.99998061,0,0)" /><path
         id="path80"
         style="fill:#000000;fill-opacity:1;stroke:none;stroke-width:1.41268;stroke-dasharray:none;stroke-opacity:1"
         d="m 587.54682,107.32183 c -19.8722,44.5924 -61.2774,75.8336 -109.6114,82.7045 l 0.2051,32.9406 c 42.2357,-4.8167 81.2655,-24.8699 109.7753,-56.4017 z"
         sodipodi:nodetypes="ccccc" /></g><rect
       style="fill:none;fill-opacity:1;stroke:#000000;stroke-width:16.6065;stroke-linecap:round;stroke-linejoin:round;stroke-dasharray:none;stroke-opacity:1"
       id="rect81"
       width="445.72427"
       height="1667.1498"
       x="1245.3456"
       y="600.04175"
       rx="11.256237"
       ry="215.16953" /><text
       xml:space="preserve"
       style="font-style:normal;font-variant:normal;font-weight:normal;font-stretch:normal;font-size:32.9601px;line-height:0.7;font-family:SignPainter;-inkscape-font-specification:SignPainter;text-align:start;letter-spacing:0px;writing-mode:lr-tb;direction:ltr;text-anchor:start;fill:#000000;stroke-width:0.648818"
       x="1288.7068"
       y="1633.2418"
       id="text81"
       transform="scale(1.0425313,0.95920382)"
       inkscape:export-filename="g6.png"
       inkscape:export-xdpi="100"
       inkscape:export-ydpi="100"><tspan
         sodipodi:role="line"
         x="1288.7068"
         y="1633.2418"
         style="font-style:normal;font-variant:normal;font-weight:900;font-stretch:normal;font-size:32.9601px;line-height:0.7;font-family:'Roboto Slab';-inkscape-font-specification:'Roboto Slab Heavy';letter-spacing:0px;stroke-width:0.648818"
         id="tspan81">26 Januari 2025</tspan></text><path
       id="path81"
       style="fill:#000000;fill-opacity:1;stroke:none;stroke-width:0.43082;stroke-dasharray:none;stroke-opacity:1"
       d="m 1449.884,1367.9126 c -2.5985,0 -5.1931,0.1987 -7.7632,0.5817 l 0.1004,16.1373 c 2.5172,-0.5565 5.085,-0.8515 7.6628,-0.8803 20.673,1e-4 37.4317,16.7589 37.4316,37.4319 -0.055,17.4466 -12.1554,32.5418 -29.1722,36.3915 l 0.072,16.1735 c 25.863,-4.0952 44.9146,-26.3798 44.9391,-52.565 10e-5,-29.4205 -23.8499,-53.2706 -53.2704,-53.2706 z"
       sodipodi:nodetypes="ccccccccc" /><rect
       style="fill:#000000;fill-opacity:1;stroke:none;stroke-width:3.73031e-05;stroke-dasharray:none;stroke-opacity:1"
       id="rect82"
       width="15.681265"
       height="106.97128"
       x="1433.3428"
       y="1423.3873"
       transform="matrix(0.99997121,-0.00758809,0.00622675,0.99998061,0,0)" /><rect
       style="fill:#000000;fill-opacity:1;stroke:none;stroke-width:3.73031e-05;stroke-dasharray:none;stroke-opacity:1"
       id="rect83"
       width="15.681265"
       height="106.97128"
       x="1411.3044"
       y="1378.3561"
       transform="matrix(0.99997121,-0.00758809,0.00622675,0.99998061,0,0)" /><rect
       style="fill:#000000;fill-opacity:1;stroke:none;stroke-width:3.73031e-05;stroke-dasharray:none;stroke-opacity:1"
       id="rect84"
       width="15.681265"
       height="106.97128"
       x="1502.5316"
       y="1423.9124"
       transform="matrix(0.99997121,-0.00758809,0.00622675,0.99998061,0,0)" /><path
       id="path84"
       style="fill:#000000;fill-opacity:1;stroke:none;stroke-width:0.608611;stroke-dasharray:none;stroke-opacity:1"
       d="m 1505.4998,1446.0085 c -8.5613,19.2113 -26.3995,32.6706 -47.2228,35.6307 l 0.088,14.1915 c 18.196,-2.0751 35.0108,-10.7144 47.2934,-24.299 z"
       sodipodi:nodetypes="ccccc" /><rect
       style="fill:#000000;fill-opacity:1;stroke:none;stroke-width:6.32545e-05;stroke-dasharray:none;stroke-opacity:1"
       id="rect1"
       width="17.015373"
       height="283.46548"
       x="1600.1771"
       y="-1586.5242"
       transform="matrix(0.01853157,0.99982828,-0.99999675,0.00254933,0,0)" /><rect
       style="fill:#000000;fill-opacity:1;stroke:none;stroke-width:6.32545e-05;stroke-dasharray:none;stroke-opacity:1"
       id="rect2"
       width="17.015373"
       height="283.46548"
       x="1329.5773"
       y="-1591.5388"
       transform="matrix(0.01853157,0.99982828,-0.99999675,0.00254933,0,0)" /><rect
       style="fill:none;fill-opacity:1;stroke:#000000;stroke-width:10;stroke-linecap:round;stroke-linejoin:round;stroke-dasharray:none;stroke-opacity:1"
       id="rect3"
       width="949.08691"
       height="686.57349"
       x="12.116003"
       y="1936.4408"
       rx="11.423077"
       ry="76.884048" /><rect
       style="fill:none;fill-opacity:1;stroke:#000000;stroke-width:10.7145;stroke-linecap:round;stroke-linejoin:round;stroke-dasharray:none;stroke-opacity:1"
       id="rect4"
       width="451.6163"
       height="684.94574"
       x="262.87064"
       y="1936.4515"
       rx="11.405034"
       ry="88.402039" /><text
       xml:space="preserve"
       style="font-style:normal;font-variant:normal;font-weight:normal;font-stretch:normal;font-size:122.833px;line-height:0.65;font-family:SignPainter;-inkscape-font-specification:SignPainter;text-align:start;writing-mode:lr-tb;direction:ltr;text-anchor:start;fill:#000000;stroke-width:2.41797"
       x="310.02448"
       y="2151.5791"
       id="text11"><tspan
         sodipodi:role="line"
         id="tspan4"
         x="310.02448"
         y="2151.5791"
         style="font-style:normal;font-variant:normal;font-weight:normal;font-stretch:normal;font-size:122.833px;line-height:0.65;font-family:STIXIntegralsSm;-inkscape-font-specification:STIXIntegralsSm;stroke-width:2.41797">and We</tspan><tspan
         sodipodi:role="line"
         x="310.02448"
         y="2236.0059"
         style="font-style:normal;font-variant:normal;font-weight:normal;font-stretch:normal;font-size:122.833px;line-height:0.65;font-family:STIXIntegralsSm;-inkscape-font-specification:STIXIntegralsSm;stroke-width:2.41797"
         id="tspan9">  created </tspan><tspan
         sodipodi:role="line"
         x="310.02448"
         y="2320.4329"
         style="font-style:normal;font-variant:normal;font-weight:normal;font-stretch:normal;font-size:122.833px;line-height:0.65;font-family:STIXIntegralsSm;-inkscape-font-specification:STIXIntegralsSm;stroke-width:2.41797"
         id="tspan10"> you in </tspan><tspan
         sodipodi:role="line"
         x="310.02448"
         y="2404.8596"
         style="font-style:normal;font-variant:normal;font-weight:normal;font-stretch:normal;font-size:122.833px;line-height:0.65;font-family:STIXIntegralsSm;-inkscape-font-specification:STIXIntegralsSm;stroke-width:2.41797"
         id="tspan11">      pairs</tspan></text><text
       xml:space="preserve"
       style="font-style:normal;font-variant:normal;font-weight:normal;font-stretch:normal;font-size:36.6789px;line-height:0.7;font-family:SignPainter;-inkscape-font-specification:SignPainter;text-align:start;letter-spacing:0px;writing-mode:lr-tb;direction:ltr;text-anchor:start;fill:#000000;stroke-width:0.722021"
       x="509.31726"
       y="2558.9861"
       id="text13"
       transform="scale(1.0425313,0.95920382)"><tspan
         sodipodi:role="line"
         x="509.31726"
         y="2558.9861"
         style="font-style:normal;font-variant:normal;font-weight:bold;font-stretch:normal;font-size:36.6789px;line-height:0.7;font-family:'CaskaydiaCove Nerd Font Propo';-inkscape-font-specification:'CaskaydiaCove Nerd Font Propo Bold';letter-spacing:0px;stroke-width:0.722021"
         id="tspan13"
         dx="0">78:8</tspan></text><g
       id="g15"
       transform="matrix(0.28507729,0,0,0.28507729,191.4749,2457.5333)"
       inkscape:export-filename="g5.png"
       inkscape:export-xdpi="100"
       inkscape:export-ydpi="100"><path
         id="path13"
         style="fill:#000000;fill-opacity:1;stroke:none;stroke-width:1;stroke-dasharray:none;stroke-opacity:1"
         d="m 458.45392,-73.95087 c -6.0314,0.01 -12.054,0.4613 -18.0196,1.3503 l 0.2331,37.4572 c 5.8427,-1.2918 11.8031,-1.9765 17.7865,-2.0433 47.9852,10e-5 86.8848,38.8999002 86.8846,86.8851 -0.1272,40.496399 -28.2147,75.5347 -67.7132,84.4703 l 0.1669,37.5414 c 60.032,-9.5058 104.2537,-61.2318 104.3105,-122.0117 2e-4,-68.289499 -55.3593,-123.6492 -123.6488,-123.6493 z"
         sodipodi:nodetypes="ccccccccc" /><rect
         style="fill:#000000;fill-opacity:1;stroke:none;stroke-width:8.65862e-05;stroke-dasharray:none;stroke-opacity:1"
         id="rect13"
         width="36.398651"
         height="248.29695"
         x="440.34433"
         y="32.846905"
         transform="matrix(0.99997121,-0.0075881,0.00622676,0.99998061,0,0)" /><rect
         style="fill:#000000;fill-opacity:1;stroke:none;stroke-width:8.65862e-05;stroke-dasharray:none;stroke-opacity:1"
         id="rect14"
         width="36.398651"
         height="248.29695"
         x="389.19003"
         y="-71.677757"
         transform="matrix(0.99997121,-0.0075881,0.00622676,0.99998061,0,0)" /><rect
         style="fill:#000000;fill-opacity:1;stroke:none;stroke-width:8.65862e-05;stroke-dasharray:none;stroke-opacity:1"
         id="rect15"
         width="36.398651"
         height="248.29695"
         x="600.94244"
         y="34.065533"
         transform="matrix(0.99997121,-0.0075881,0.00622676,0.99998061,0,0)" /><path
         id="path15"
         style="fill:#000000;fill-opacity:1;stroke:none;stroke-width:1.41268;stroke-dasharray:none;stroke-opacity:1"
         d="m 587.54682,107.32183 c -19.8722,44.5924 -61.2774,75.8336 -109.6114,82.7045 l 0.2051,32.9406 c 42.2357,-4.8167 81.2655,-24.8699 109.7753,-56.4017 z"
         sodipodi:nodetypes="ccccc" /></g></g></svg>
